<?xml version="1.0" encoding="utf-8"?>
<!-- Generator: Adobe Illustrator 21.1.0, SVG Export Plug-In . SVG Version: 6.00 Build 0)  -->
<svg version="1.1" id="Layer_1" xmlns="http://www.w3.org/2000/svg" xmlns:xlink="http://www.w3.org/1999/xlink" x="0px" y="0px"
	 viewBox="0 0 768 768" style="enable-background:new 0 0 768 768;" xml:space="preserve">
<style type="text/css">
	.st0{fill:#070100;}
	.st1{fill:#00B13D;}
	.st2{fill:#DD1E00;}
	.st3{fill:#DAE800;}
	.st4{fill:#2A1FFF;}
	.st5{fill:#1A1A1A;}
	.st6{fill:#999999;}
	.st7{fill:#808080;}
	.st8{fill:#FFFFFF;}
	.st9{font-family:'Helvetica-Bold';}
	.st10{font-size:17.0657px;}
	.st11{font-size:17.035px;}
</style>
<g id="background">
	<path class="st0" d="M384,733.5c-93.4,0-181.1-36.4-247.1-102.4S34.5,477.4,34.5,384c0-93.4,36.4-181.1,102.4-247.1
		S290.6,34.5,384,34.5c93.4,0,181.1,36.4,247.1,102.4S733.5,290.6,733.5,384c0,93.4-36.4,181.1-102.4,247.1S477.4,733.5,384,733.5z"
		/>
	<path d="M384,35c47.1,0,92.8,9.2,135.8,27.4c41.6,17.6,78.9,42.7,110.9,74.8c32.1,32.1,57.2,69.4,74.8,110.9
		c18.2,43,27.4,88.7,27.4,135.8s-9.2,92.8-27.4,135.8c-17.6,41.6-42.7,78.9-74.8,110.9c-32.1,32.1-69.4,57.2-110.9,74.8
		c-43,18.2-88.7,27.4-135.8,27.4s-92.8-9.2-135.8-27.4c-41.6-17.6-78.9-42.7-110.9-74.8c-32.1-32.1-57.2-69.4-74.8-110.9
		C44.2,476.8,35,431.1,35,384s9.2-92.8,27.4-135.8c17.6-41.6,42.7-78.9,74.8-110.9c32.1-32.1,69.4-57.2,110.9-74.8
		C291.2,44.2,336.9,35,384,35 M384,34C190.7,34,34,190.7,34,384s156.7,350,350,350s350-156.7,350-350S577.3,34,384,34L384,34z"/>
</g>
<g>
	<rect x="70.5" y="376.5" width="156" height="16"/>
	<path d="M226,377v15H71v-15H226 M227,376H70v17h157V376L227,376z"/>
</g>
<g id="green">
	<path class="st1" d="M70.6,375c2-80.5,34.5-156.2,91.4-213.3c56.9-57.1,132.5-89.8,213-92v151.1c-40.1,2.2-77.8,19.1-106.2,47.7
		c-28.4,28.6-45.1,66.4-47.1,106.6H70.6z"/>
	<path d="M374.5,70.1v150.1c-40.1,2.3-77.7,19.3-106.1,47.8c-28.4,28.6-45.1,66.3-47.2,106.4H71.1c2.1-80.2,34.5-155.6,91.2-212.5
		C219.1,105.1,294.4,72.5,374.5,70.1 M375.5,69.1C208.5,73.6,74,208.4,70.1,375.5h152.1c3.8-83.2,70.3-150,153.3-154.3V69.1
		L375.5,69.1z"/>
</g>
<g id="red">
	<path class="st2" d="M546.3,375c-1.9-40.2-18.7-78-47.1-106.6c-28.4-28.6-66.1-45.5-106.2-47.7V69.6c80.5,2.3,156.1,34.9,213,92
		c56.9,57.1,89.4,132.8,91.4,213.3H546.3z"/>
	<path d="M393.5,70.1c80.1,2.4,155.4,35,212.1,91.9c56.7,56.9,89.1,132.3,91.2,212.5H546.8c-2.1-40.1-18.8-77.9-47.2-106.4
		c-28.4-28.5-66-45.5-106.1-47.8V70.1 M392.5,69.1v152.1c83,4.3,149.5,71.1,153.3,154.3h152.1C694,208.4,559.5,73.6,392.5,69.1
		L392.5,69.1z"/>
</g>
<g id="yellow">
	<path class="st3" d="M375,696.4C209.4,691.7,75.9,558.6,70.7,393h151.1c2.4,39.7,19.3,77.1,47.6,105.2
		c28.3,28.2,65.8,44.8,105.6,47V696.4z"/>
	<path d="M221.3,393.5c2.5,39.7,19.5,77,47.7,105.1c28.3,28.1,65.7,44.9,105.4,47.1v150.1C209.6,690.9,76.6,558.4,71.2,393.5H221.3
		 M222.3,392.5H70.2c4.9,166.2,139,300,305.3,304.4V544.8C293.1,540.5,227,474.7,222.3,392.5L222.3,392.5z"/>
</g>
<g id="blue">
	<path class="st4" d="M393,545.3c39.8-2.2,77.2-18.9,105.6-47c28.3-28.1,45.2-65.5,47.6-105.2h151.1
		C692.1,558.6,558.6,691.7,393,696.4V545.3z"/>
	<path d="M696.8,393.5c-5.4,164.9-138.4,297.4-303.3,302.4V545.7c39.7-2.3,77.1-19,105.4-47.1c28.3-28.1,45.2-65.4,47.7-105.1H696.8
		 M697.8,392.5H545.7c-4.8,82.2-70.8,148-153.2,152.3v152.1C558.8,692.5,692.9,558.7,697.8,392.5L697.8,392.5z"/>
</g>
<g id="top-center-background">
	<path class="st5" d="M240.7,375c1.6-36.2,16.9-70,43.1-95.2c26.4-25.4,61.1-39.3,97.7-39.3s71.3,14,97.7,39.3
		c26.2,25.2,41.5,59,43.1,95.2H240.7z"/>
	<path d="M381.5,241c36.5,0,71.1,13.9,97.4,39.2c26,25,41.2,58.4,43,94.3H241.2c1.8-35.9,17-69.3,43-94.3
		C310.4,254.9,345,241,381.5,241 M381.5,240c-76.1,0-138.2,60.1-141.4,135.5h282.7C519.7,300.1,457.6,240,381.5,240L381.5,240z"/>
</g>
<g id="bottom-center-background">
	<path class="st6" d="M381.5,522.5c-77.7,0-141-63.3-141-141c0-1.7,0-3.5,0.1-5.5h281.8c0.1,2,0.1,3.8,0.1,5.5
		C522.5,459.2,459.2,522.5,381.5,522.5z"/>
	<path d="M521.9,376.5c0.1,1.8,0.1,3.4,0.1,5c0,37.5-14.6,72.8-41.2,99.3C454.3,507.4,419,522,381.5,522s-72.8-14.6-99.3-41.2
		C255.6,454.3,241,419,241,381.5c0-1.6,0-3.2,0.1-5H521.9 M522.9,375.5H240.1c-0.1,2-0.1,4-0.1,6c0,78.1,63.4,141.5,141.5,141.5
		S523,459.6,523,381.5C523,379.5,522.9,377.5,522.9,375.5L522.9,375.5z"/>
</g>
<g>
	<path class="st7" d="M277.4,353.5c-6.2,0-9.3-1.8-9.3-5.5v-8.3h18.6v2.6c0,0.1,0.1,0.1,0.2,0.1h4.2c0.1,0,0.2,0,0.2-0.1v-5.2
		c0-0.1-0.1-0.1-0.2-0.1h-13.7c-6.2,0-9.3-1.9-9.3-5.6V315c0-3.7,3.1-5.6,9.3-5.6h23.1c6.2,0,9.3,1.9,9.3,5.6v8.1h-18.6v-2.6
		c0-0.1-0.1-0.1-0.2-0.1h-4.2c-0.1,0-0.2,0-0.2,0.1v5.2c0,0.1,0.1,0.1,0.2,0.1h13.7c6.2,0,9.3,1.8,9.3,5.5V348
		c0,3.6-3.1,5.5-9.3,5.5H277.4z"/>
	<path class="st7" d="M314.3,353.5v-44.1h18.6v44.1H314.3z"/>
	<path class="st7" d="M393.3,367.2c-1.1,0-2.2-0.1-3.4-0.4c-1.1-0.3-2.1-0.7-3-1.2c-0.9-0.5-1.6-1.1-2.1-1.8c-0.5-0.7-0.8-1.3-0.8-2
		v-41.2c0-0.1-0.1-0.1-0.2-0.1h-4.4c-0.1,0-0.2,0-0.2,0.1v32.9h-18.6v-32.9c0-0.1-0.1-0.1-0.2-0.1h-4.2c-0.1,0-0.2,0-0.2,0.1v32.9
		h-18.6v-44.1h18.6v2.8c1.1-0.9,2.8-1.6,4.9-2.1c2.1-0.5,4.5-0.7,7.2-0.7c2.7,0,4.9,0.3,6.4,0.8c1.5,0.6,2.8,1.4,3.8,2.5
		c1.4-1.3,3.1-2.2,5.1-2.7c2.1-0.4,4.5-0.7,7.5-0.7c1.6,0,3.1,0.1,4.5,0.4c1.4,0.3,2.6,0.7,3.6,1.3c1,0.6,1.8,1.2,2.4,2
		c0.6,0.8,0.9,1.6,0.9,2.4v40.6c0,0.1,0.1,0.1,0.2,0.1h45.9v11H393.3z M416.1,353.5c-6.2,0-9.3-1.8-9.3-5.5V315
		c0-3.7,3.1-5.6,9.3-5.6h23.1c6.2,0,9.3,1.9,9.3,5.6V348c0,3.6-3.1,5.5-9.3,5.5H416.1z M430,320.6c0-0.1-0.1-0.1-0.2-0.1h-4.2
		c-0.1,0-0.2,0-0.2,0.1v21.8c0,0.1,0.1,0.1,0.2,0.1h4.2c0.1,0,0.2,0,0.2-0.1V320.6z"/>
	<path class="st7" d="M476.2,353.5v-32.9c0-0.1-0.1-0.1-0.2-0.1h-4.2c-0.1,0-0.2,0-0.2,0.1v32.9H453v-44.1h18.6v2.8
		c3.2-1.9,7.8-2.8,13.9-2.8c6.2,0,9.3,1.9,9.3,5.6v38.5H476.2z"/>
</g>
<g id="start-button">
	<path class="st8" d="M397,436.5c-10.8,0-19.5-8.7-19.5-19.5s8.7-19.5,19.5-19.5s19.5,8.7,19.5,19.5S407.8,436.5,397,436.5z"/>
	<path d="M397,398c10.5,0,19,8.5,19,19s-8.5,19-19,19s-19-8.5-19-19S386.5,398,397,398 M397,397c-11,0-20,9-20,20s9,20,20,20
		s20-9,20-20S408,397,397,397L397,397z"/>
</g>
<g id="strict-button_1_">
	<path class="st8" d="M462,436.5c-10.8,0-19.5-8.7-19.5-19.5s8.7-19.5,19.5-19.5s19.5,8.7,19.5,19.5S472.8,436.5,462,436.5z"/>
	<path d="M462,398c10.5,0,19,8.5,19,19s-8.5,19-19,19s-19-8.5-19-19S451.5,398,462,398 M462,397c-11,0-20,9-20,20s9,20,20,20
		s20-9,20-20S473,397,462,397L462,397z"/>
</g>
<text id="start-label" transform="matrix(0.9869 0 0 1 377.4561 463.5244)" class="st9 st10">Start</text>
<text id="count-label" transform="matrix(0.9869 0 0 1 289.4561 463.5244)" class="st9 st10">Count</text>
<text id="strict-button" transform="matrix(1 0 0 1 442.4561 463.3896)" class="st9 st11">Strict</text>
<g id="count-box">
	<rect x="285.5" y="394.5" class="st6" width="61" height="44"/>
	<path d="M346,395v43h-60v-43H346 M347,394h-62v45h62V394L347,394z"/>
</g>
<g id="strict-status">
	<circle class="st8" cx="462" cy="386.2" r="4.8"/>
	<path d="M462,382c2.3,0,4.2,1.9,4.2,4.2s-1.9,4.2-4.2,4.2s-4.2-1.9-4.2-4.2S459.7,382,462,382 M462,381c-2.9,0-5.2,2.4-5.2,5.2
		s2.4,5.2,5.2,5.2s5.2-2.4,5.2-5.2S464.9,381,462,381L462,381z"/>
</g>
</svg>
